<?xml version="1.0" standalone="no"?><!DOCTYPE svg PUBLIC "-//W3C//DTD SVG 1.1//EN" "http://www.w3.org/Graphics/SVG/1.1/DTD/svg11.dtd"><svg width="20" height="20" viewBox="0 0 20 20" version="1.1" xmlns="http://www.w3.org/2000/svg" xmlns:xlink="http://www.w3.org/1999/xlink"><defs><style type="text/css"><![CDATA[
@font-face { font-family: ifont; src: url("//at.alicdn.com/t/font_1442373896_4754455.eot?#iefix") format("embedded-opentype"), url("//at.alicdn.com/t/font_1442373896_4754455.woff") format("woff"), url("//at.alicdn.com/t/font_1442373896_4754455.ttf") format("truetype"), url("//at.alicdn.com/t/font_1442373896_4754455.svg#ifont") format("svg"); }

]]></style></defs><g class="transform-group"><g transform="scale(0.01953125, 0.01953125)"><path d="M373.542 171.719h-144.514c-47.887 0-86.78 38.939-86.78 86.946v144.931c0 48.006 29.451 88.364 77.337 88.364h154.673c47.936 0 88.385-40.38 88.385-88.385v-143.625c0-48.006-41.165-88.233-89.101-88.233zM429.498 403.576c0 0-12.939 55.24-55.24 55.24h-154.673c-15.911 0-44.192-39.289-44.192-55.24v-143.625c0-35.663 23.79-55.24 55.24-55.24h143.625c36.325 0 55.24 20.937 55.24 55.24v143.625zM373.542 558.4h-144.514c-47.887 0-86.78 38.939-86.78 86.946v144.931c0 48.006 29.451 88.364 77.337 88.364h154.673c47.936 0 88.385-40.38 88.385-88.385v-143.624c0-48.007-41.165-88.234-89.101-88.234zM429.498 790.258c0 0-12.939 55.24-55.24 55.24h-154.673c-15.911 0-44.192-39.289-44.192-55.24v-143.625c0-35.663 23.79-55.24 55.24-55.24h143.625c36.325 0 55.24 20.937 55.24 55.24v143.625zM760.223 558.4h-144.513c-47.887 0-86.78 38.939-86.78 86.946v144.931c0 48.006 29.451 88.364 77.337 88.364h154.673c47.936 0 88.385-40.38 88.385-88.385v-143.624c-0.001-48.007-41.166-88.234-89.101-88.234zM816.179 790.258c0 0-12.939 55.24-55.24 55.24h-154.673c-15.912 0-44.192-39.289-44.192-55.24v-143.625c0-35.663 23.79-55.24 55.24-55.24h143.625c36.325 0 55.24 20.937 55.24 55.24v143.625zM853.182 269.267l-101.558-101.557c-33.946-33.946-91.497-33.283-125.394 0.612l-102.187 102.188c-33.861 33.861-33.828 88.897 0.118 122.842l102.481 102.482c33.944 33.944 83.309 41.659 117.169 7.798l109.37-109.369c33.897-33.898 33.945-91.051 0.001-124.996zM829.745 370.825l-109.371 109.37c-11.251 11.252-59.029 3.468-70.308-7.811l-101.558-101.558c-25.217-25.217-22.239-55.882 0-78.12l101.558-101.558c25.686-25.686 53.866-24.255 78.12 0l101.558 101.557c0.001 0.001 29.912 48.21 0.001 78.121z" fill="#fff"></path></g></g></svg>