<?xml version="1.0" standalone="no"?><!DOCTYPE svg PUBLIC "-//W3C//DTD SVG 1.1//EN" "http://www.w3.org/Graphics/SVG/1.1/DTD/svg11.dtd"><svg width="20" height="20" viewBox="0 0 20 20" version="1.1" xmlns="http://www.w3.org/2000/svg" xmlns:xlink="http://www.w3.org/1999/xlink"><defs><style type="text/css"><![CDATA[
@font-face { font-family: ifont; src: url("//at.alicdn.com/t/font_1442373896_4754455.eot?#iefix") format("embedded-opentype"), url("//at.alicdn.com/t/font_1442373896_4754455.woff") format("woff"), url("//at.alicdn.com/t/font_1442373896_4754455.ttf") format("truetype"), url("//at.alicdn.com/t/font_1442373896_4754455.svg#ifont") format("svg"); }

]]></style></defs><g class="transform-group"><g transform="scale(0.01953125, 0.01953125)"><path d="M176.957783 959.379237c-62.300928 0-113.085568-50.686403-113.208365-112.988354l-1.309832-668.609851c-0.059352-30.137391 11.689227-58.561767 33.080419-80.037894 21.391193-21.475104 49.76952-33.335223 79.906911-33.393551l670.26863-1.312902c62.301951 0 113.086591 50.686403 113.207341 112.988354l1.309832 668.608827c0.060375 30.137391-11.688203 58.56279-33.080419 80.037894-21.391193 21.475104-49.76952 33.335223-79.906911 33.393551L176.957783 959.379237zM845.69657 104.521518l-0.14224 0-670.046572 1.312902c-19.056008 0.036839-37.025265 7.561209-50.596352 21.185508-13.571087 13.625322-21.024849 31.623231-20.986987 50.679239l1.309832 668.609851c0.077771 39.47199 32.252565 71.585385 71.723531 71.585385l0.14224 0 670.046572-1.313925c19.057031-0.036839 37.025265-7.560186 50.596352-21.184485s21.024849-31.623231 20.986987-50.679239l-1.309832-668.609851C917.343353 136.63389 885.16856 104.521518 845.69657 104.521518zM924.312068 580.791759c-220.62584-235.240699-591.500659-247.13254-826.743404-26.505677l-28.378327-30.259164c61.72276-57.887408 132.907009-101.95916 211.574696-130.98831 75.985602-28.039613 155.722644-40.940434 236.998739-38.331004 81.275072 2.605338 160.0236 20.583804 234.057757 53.43398 76.646658 34.009582 144.862295 82.549088 202.750727 144.272871L924.312068 580.791759zM511.328199 813.365722c-84.943624 0-154.049538-69.105914-154.049538-154.049538s69.105914-154.049538 154.049538-154.049538 154.048515 69.105914 154.048515 154.049538S596.2708 813.365722 511.328199 813.365722zM511.328199 546.751478c-62.068637 0-112.564705 50.497091-112.564705 112.564705 0 62.068637 50.496068 112.565728 112.564705 112.565728 62.067614 0 112.564705-50.497091 112.564705-112.565728C623.892905 597.248569 573.395814 546.751478 511.328199 546.751478zM777.660011 246.447948m-54.001915 0a52.772 52.772 0 1 0 108.003829 0 52.772 52.772 0 1 0-108.003829 0Z" fill="#70b2ff"></path></g></g></svg>