<?xml version="1.0" standalone="no"?><!DOCTYPE svg PUBLIC "-//W3C//DTD SVG 1.1//EN" "http://www.w3.org/Graphics/SVG/1.1/DTD/svg11.dtd"><svg width="20" height="20" viewBox="0 0 20 20" version="1.1" xmlns="http://www.w3.org/2000/svg" xmlns:xlink="http://www.w3.org/1999/xlink"><defs><style type="text/css"><![CDATA[
@font-face { font-family: ifont; src: url("//at.alicdn.com/t/font_1442373896_4754455.eot?#iefix") format("embedded-opentype"), url("//at.alicdn.com/t/font_1442373896_4754455.woff") format("woff"), url("//at.alicdn.com/t/font_1442373896_4754455.ttf") format("truetype"), url("//at.alicdn.com/t/font_1442373896_4754455.svg#ifont") format("svg"); }

]]></style></defs><g class="transform-group"><g transform="scale(0.01953125, 0.01953125)"><path d="M727.4496 762.6752l163.1744 0.0512c18.4832-46.4896 28.7232-97.2288 28.7232-150.4256 0-225.3312-182.9888-408.1664-408.32-408.1664-225.2288 0-408.32 182.8352-408.32 408.1664 0 53.0944 10.24 103.8336 28.7744 150.3744L294.4 762.6752l0 53.6576L101.0176 815.616c-42.8032-63.1296-52.8384-135.4752-52.7872-203.264 0-270.5408 192.2048-462.6944 462.7456-462.6944 270.4896 0 462.6944 192.256 462.6944 462.3872 0 68.352-6.0416 142.08-53.6064 205.056l-192.6656 0L727.3984 762.6752zM483.1744 748.3392c-14.2336 22.8864-7.5776 52.8896 15.2064 67.2256 22.9376 14.3872 52.9408 7.4752 67.4304-15.1552 0 0 190.1056-340.1216 167.3728-354.5088C710.2976 431.4112 483.1744 748.3392 483.1744 748.3392z" fill="#70b2ff"></path></g></g></svg>