<svg id="Layer_1" data-name="Layer 1" xmlns="http://www.w3.org/2000/svg" viewBox="0 0 174 33"><defs><style>.cls-1,.cls-2{fill:#334874;}.cls-2{fill-rule:evenodd;}</style></defs><title>Artboard 1</title><path class="cls-1" d="M65.49,23.56a8.37,8.37,0,0,0,2-.71,7.79,7.79,0,0,0,1.64-1.13,6.89,6.89,0,0,0,1.26-1.5,7.25,7.25,0,0,0,.81-1.84,7.74,7.74,0,0,0,.28-2.13,7.1,7.1,0,0,0-.28-2A6.81,6.81,0,0,0,69.08,11a7.82,7.82,0,0,0-1.64-1.11,8.68,8.68,0,0,0-2-.7,10,10,0,0,0-4.4,0,8.83,8.83,0,0,0-2,.7A7.57,7.57,0,0,0,57.5,11a7,7,0,0,0-1.26,1.47,6.86,6.86,0,0,0-.8,1.78,7.18,7.18,0,0,0-.28,2,7.47,7.47,0,0,0,.28,2.09,7.3,7.3,0,0,0,.8,1.82,7,7,0,0,0,1.26,1.51,7.83,7.83,0,0,0,1.64,1.14,8.55,8.55,0,0,0,2,.72,9.29,9.29,0,0,0,2.2.26A9.66,9.66,0,0,0,65.49,23.56Zm-4-1.44A4,4,0,0,1,60.1,20.8a6.54,6.54,0,0,1-.81-2A11,11,0,0,1,59,16.26a10.42,10.42,0,0,1,.27-2.47,6.12,6.12,0,0,1,.81-1.94,3.85,3.85,0,0,1,1.34-1.26,3.71,3.71,0,0,1,1.85-.45,3.66,3.66,0,0,1,1.84.45,3.91,3.91,0,0,1,1.33,1.26,6,6,0,0,1,.81,1.94,10.42,10.42,0,0,1,.28,2.47,11,11,0,0,1-.28,2.53,6.47,6.47,0,0,1-.81,2,4,4,0,0,1-1.33,1.32,3.51,3.51,0,0,1-1.84.48A3.55,3.55,0,0,1,61.44,22.12Z"/><path class="cls-1" d="M72.78,27.7H76V23.4a3.32,3.32,0,0,0,.91.23,10.67,10.67,0,0,0,1.11.05,5.51,5.51,0,0,0,2.29-.46,5.07,5.07,0,0,0,1.74-1.27A5.68,5.68,0,0,0,83.2,20a7.42,7.42,0,0,0,.38-2.44,5.77,5.77,0,0,0-.32-1.94A4.94,4.94,0,0,0,82.34,14a4.44,4.44,0,0,0-1.44-1.1,4.25,4.25,0,0,0-1.87-.4,4.41,4.41,0,0,0-1.7.3,5.05,5.05,0,0,0-1.28.76v-.84H72.78ZM76,15.76a4.93,4.93,0,0,1,.44-.52,3.32,3.32,0,0,1,.5-.42,2.5,2.5,0,0,1,.56-.29,1.75,1.75,0,0,1,.6-.11,1.3,1.3,0,0,1,.79.27,2.12,2.12,0,0,1,.62.8,5.12,5.12,0,0,1,.4,1.31,10.16,10.16,0,0,1,.15,1.82,6.44,6.44,0,0,1-.17,1.5,4.68,4.68,0,0,1-.44,1.19,2.44,2.44,0,0,1-.64.77,1.29,1.29,0,0,1-.79.28,2.27,2.27,0,0,1-.83-.15,1.9,1.9,0,0,1-.64-.4,1.78,1.78,0,0,1-.41-.6,1.88,1.88,0,0,1-.14-.73Z"/><path class="cls-1" d="M91.47,23.39a6.27,6.27,0,0,0,1.61-.91,6.52,6.52,0,0,0,1.3-1.34,5.29,5.29,0,0,0,.81-1.64l-1.67-.25a3,3,0,0,1-.47.91,3.63,3.63,0,0,1-.76.76,3.69,3.69,0,0,1-1,.51,3.14,3.14,0,0,1-1.06.18,1.9,1.9,0,0,1-1.13-.36,3.32,3.32,0,0,1-.89-1,5.58,5.58,0,0,1-.61-1.43,7.24,7.24,0,0,1-.25-1.7h7.44a4.38,4.38,0,0,0-.37-1.8,4.47,4.47,0,0,0-1-1.46,4.79,4.79,0,0,0-1.6-1,5.75,5.75,0,0,0-2.06-.36,5.66,5.66,0,0,0-2.29.45,5.16,5.16,0,0,0-1.76,1.24,5.62,5.62,0,0,0-1.13,1.88,6.76,6.76,0,0,0-.4,2.36,4.85,4.85,0,0,0,.43,2,5.34,5.34,0,0,0,1.18,1.68,5.73,5.73,0,0,0,1.75,1.14,5.48,5.48,0,0,0,2.16.43A4.9,4.9,0,0,0,91.47,23.39ZM87.41,16a3.09,3.09,0,0,1,.22-.87,2.52,2.52,0,0,1,.41-.68,1.77,1.77,0,0,1,.53-.43,1.27,1.27,0,0,1,.59-.15,1.71,1.71,0,0,1,.73.16,1.83,1.83,0,0,1,.59.43,2.34,2.34,0,0,1,.42.67,2.82,2.82,0,0,1,.2.87Z"/><path class="cls-1" d="M102.91,23.48h3.25V15.8a3.1,3.1,0,0,0-.27-1.27,3.43,3.43,0,0,0-.71-1,3.29,3.29,0,0,0-1-.7,3.15,3.15,0,0,0-1.25-.26,6,6,0,0,0-1.72.26,5.21,5.21,0,0,0-1.61.8v-.84H96.29V23.48h3.27V15.62a5.84,5.84,0,0,1,.6-.49,5.13,5.13,0,0,1,.61-.37,3.54,3.54,0,0,1,.57-.24,1.67,1.67,0,0,1,.48-.08.81.81,0,0,1,.41.11,1.06,1.06,0,0,1,.34.33,1.77,1.77,0,0,1,.24.54,2.7,2.7,0,0,1,.09.73Z"/><path class="cls-1" d="M108.26,23.48h3.51V17.26h2.06a7.14,7.14,0,0,0,1.88-.25,5.21,5.21,0,0,0,1.63-.75A3.94,3.94,0,0,0,118.5,15a3.42,3.42,0,0,0,.44-1.76,3.37,3.37,0,0,0-.44-1.75,3.78,3.78,0,0,0-1.22-1.25,5.86,5.86,0,0,0-1.81-.76,9.45,9.45,0,0,0-2.24-.25h-5Zm3.51-12.86h1a2.56,2.56,0,0,1,1,.18,2.28,2.28,0,0,1,.78.52,2.39,2.39,0,0,1,.53.84,3.2,3.2,0,0,1,.19,1.14,3.53,3.53,0,0,1-.14,1,2.51,2.51,0,0,1-.44.86,2.1,2.1,0,0,1-.74.58,2.35,2.35,0,0,1-1,.21h-1.14Z"/><path class="cls-1" d="M125.76,21a9.75,9.75,0,0,1-.9.62,1.58,1.58,0,0,1-.81.24.65.65,0,0,1-.37-.12,1.22,1.22,0,0,1-.31-.33,1.67,1.67,0,0,1-.22-.48,2.08,2.08,0,0,1-.08-.58,1.29,1.29,0,0,1,.24-.75,3.22,3.22,0,0,1,.64-.67,6,6,0,0,1,.87-.58,10.39,10.39,0,0,1,.95-.46ZM129,15.43a2.75,2.75,0,0,0-.26-1.21,2.39,2.39,0,0,0-.8-.92,4.12,4.12,0,0,0-1.37-.59,8.22,8.22,0,0,0-2-.21,7.92,7.92,0,0,0-1.78.2,5.89,5.89,0,0,0-1.49.54,3.31,3.31,0,0,0-1,.82,1.62,1.62,0,0,0-.38,1,1.31,1.31,0,0,0,.11.54,1.34,1.34,0,0,0,.31.44,1.43,1.43,0,0,0,.48.29,2,2,0,0,0,1.36,0,1.16,1.16,0,0,0,.45-.34,1.28,1.28,0,0,0,.23-.49,2.6,2.6,0,0,0,.07-.59,1.67,1.67,0,0,1,.07-.49,1,1,0,0,1,.23-.4,1.09,1.09,0,0,1,.42-.28,1.83,1.83,0,0,1,.65-.1,1.68,1.68,0,0,1,.59.1,1.06,1.06,0,0,1,.45.32,1.63,1.63,0,0,1,.29.59,3.14,3.14,0,0,1,.11.87V16.6l-.36.08-1.32.43q-.67.22-1.3.48a9.57,9.57,0,0,0-1.17.58,4.81,4.81,0,0,0-.95.72,3.15,3.15,0,0,0-.64.89,2.57,2.57,0,0,0-.23,1.11A2.75,2.75,0,0,0,120,22a2.53,2.53,0,0,0,.63.88,3,3,0,0,0,1,.59,4,4,0,0,0,1.33.21,4.91,4.91,0,0,0,1-.08,3.22,3.22,0,0,0,.72-.22,3.33,3.33,0,0,0,.57-.34q.26-.19.53-.42v.86H129Z"/><path class="cls-1" d="M134.31,7.53l-3.23.9V23.48h3.23Z"/><path class="cls-1" d="M142.79,23.39a6.27,6.27,0,0,0,1.61-.91,6.52,6.52,0,0,0,1.29-1.34,5.29,5.29,0,0,0,.8-1.64l-1.67-.25a3,3,0,0,1-.47.91,3.63,3.63,0,0,1-.76.76,3.69,3.69,0,0,1-1,.51,3.14,3.14,0,0,1-1.06.18,1.9,1.9,0,0,1-1.13-.36,3.32,3.32,0,0,1-.89-1,5.58,5.58,0,0,1-.61-1.43,7.24,7.24,0,0,1-.25-1.7h7.44a4.38,4.38,0,0,0-.37-1.8,4.47,4.47,0,0,0-1-1.46,4.79,4.79,0,0,0-1.6-1,5.75,5.75,0,0,0-2.06-.36,5.66,5.66,0,0,0-2.29.45A5.16,5.16,0,0,0,137,14.23a5.62,5.62,0,0,0-1.13,1.88,6.76,6.76,0,0,0-.4,2.36,4.85,4.85,0,0,0,.43,2,5.34,5.34,0,0,0,1.18,1.68,5.73,5.73,0,0,0,1.76,1.14,5.48,5.48,0,0,0,2.15.43A4.9,4.9,0,0,0,142.79,23.39ZM138.73,16a3.09,3.09,0,0,1,.22-.87,2.52,2.52,0,0,1,.41-.68,1.77,1.77,0,0,1,.53-.43,1.27,1.27,0,0,1,.59-.15,1.71,1.71,0,0,1,.72.16,1.83,1.83,0,0,1,.59.43,2.34,2.34,0,0,1,.42.67,2.82,2.82,0,0,1,.2.87Z"/><path class="cls-1" d="M148.57,14.06v7a3.23,3.23,0,0,0,.17,1.08,2.2,2.2,0,0,0,.51.83,2.36,2.36,0,0,0,.84.54,3.28,3.28,0,0,0,1.19.2,4.79,4.79,0,0,0,1.26-.15,3.48,3.48,0,0,0,1.71-1,6,6,0,0,0,.59-.78l-1.12-.88-.2.23a3.6,3.6,0,0,1-.33.3,2.67,2.67,0,0,1-.38.27.75.75,0,0,1-.37.11.52.52,0,0,1-.45-.24,1,1,0,0,1-.17-.56V14.06h2.65V12.75h-2.65V9.33H150a6.74,6.74,0,0,1-.44,1.41,4.86,4.86,0,0,1-.71,1.16,3.37,3.37,0,0,1-.93.79,2.2,2.2,0,0,1-1.09.29v1.08Z"/><path class="cls-1" d="M156.3,14.06v7a3.23,3.23,0,0,0,.17,1.08A2.2,2.2,0,0,0,157,23a2.36,2.36,0,0,0,.84.54,3.28,3.28,0,0,0,1.19.2,4.79,4.79,0,0,0,1.26-.15,3.48,3.48,0,0,0,1.71-1,6,6,0,0,0,.59-.78l-1.12-.88-.21.23a3.6,3.6,0,0,1-.32.3,2.67,2.67,0,0,1-.38.27.75.75,0,0,1-.37.11.52.52,0,0,1-.45-.24,1,1,0,0,1-.17-.56V14.06h2.65V12.75h-2.65V9.33h-1.8a6.74,6.74,0,0,1-.44,1.41,4.86,4.86,0,0,1-.71,1.16,3.37,3.37,0,0,1-.93.79,2.2,2.2,0,0,1-1.09.29v1.08Z"/><path class="cls-1" d="M169.85,23.39a6.27,6.27,0,0,0,1.62-.91,6.52,6.52,0,0,0,1.29-1.34,5.29,5.29,0,0,0,.81-1.64l-1.67-.25a3,3,0,0,1-.47.91,3.63,3.63,0,0,1-.76.76,3.69,3.69,0,0,1-1,.51,3.14,3.14,0,0,1-1.06.18,1.9,1.9,0,0,1-1.13-.36,3.32,3.32,0,0,1-.89-1,5.57,5.57,0,0,1-.6-1.43,7.24,7.24,0,0,1-.25-1.7h7.44a4.38,4.38,0,0,0-.37-1.8,4.47,4.47,0,0,0-1-1.46,4.79,4.79,0,0,0-1.6-1,5.75,5.75,0,0,0-2.05-.36,5.66,5.66,0,0,0-2.29.45,5.16,5.16,0,0,0-1.76,1.24A5.61,5.61,0,0,0,163,16.11a6.76,6.76,0,0,0-.4,2.36,4.85,4.85,0,0,0,.43,2,5.33,5.33,0,0,0,1.18,1.68,5.73,5.73,0,0,0,1.75,1.14,5.48,5.48,0,0,0,2.16.43A4.9,4.9,0,0,0,169.85,23.39ZM165.79,16a3.09,3.09,0,0,1,.22-.87,2.52,2.52,0,0,1,.41-.68,1.77,1.77,0,0,1,.53-.43,1.27,1.27,0,0,1,.59-.15,1.71,1.71,0,0,1,.72.16,1.83,1.83,0,0,1,.59.43,2.34,2.34,0,0,1,.42.67,2.82,2.82,0,0,1,.21.87Z"/><path class="cls-2" d="M38,19.23a9.4,9.4,0,0,1,6.34-4.62,8.13,8.13,0,0,1,7.21,1.9,9.4,9.4,0,0,1-6.34,4.62A8.13,8.13,0,0,1,38,19.23Z"/><path class="cls-2" d="M40.39,17.12a6.43,6.43,0,0,1,.79-5.18,5.25,5.25,0,0,1,4.19-2.51,6.43,6.43,0,0,1-.79,5.18A5.25,5.25,0,0,1,40.39,17.12Z"/><path class="cls-2" d="M28.83,1.7A29.54,29.54,0,0,0,17.5,0C9.37.18,1.5,4.5,1.5,10c0,4.21,6.4,4.52,6.4,6.9,0,2.72-5.6,3.8-5.6,8,0,5.17,9.07,8,15.2,8a35,35,0,0,0,14.67-3.37c5.23-2.53,9.33-7.15,9.33-12.72C41.5,9.32,35.76,4.15,28.83,1.7ZM18.42,11.38a3.2,3.2,0,1,1,3.2-3.2A3.2,3.2,0,0,1,18.42,11.38Z"/></svg>