<?xml version="1.0" standalone="no"?><!DOCTYPE svg PUBLIC "-//W3C//DTD SVG 1.1//EN" "http://www.w3.org/Graphics/SVG/1.1/DTD/svg11.dtd"><svg width="20" height="20" viewBox="0 0 20 20" version="1.1" xmlns="http://www.w3.org/2000/svg" xmlns:xlink="http://www.w3.org/1999/xlink"><defs><style type="text/css"><![CDATA[
@font-face { font-family: ifont; src: url("//at.alicdn.com/t/font_1442373896_4754455.eot?#iefix") format("embedded-opentype"), url("//at.alicdn.com/t/font_1442373896_4754455.woff") format("woff"), url("//at.alicdn.com/t/font_1442373896_4754455.ttf") format("truetype"), url("//at.alicdn.com/t/font_1442373896_4754455.svg#ifont") format("svg"); }

]]></style></defs><g class="transform-group"><g transform="scale(0.01953125, 0.01953125)"><path d="M517.311 915.529c-92.409 0-184.819 0.305-277.223-0.411-10.766-0.083-22.029-1.775-32.916-5.755-17.401-6.361-30.164-17.569-39.473-32.687-6.8-11.046-11.138-23.147-11.924-36.737-4.324-74.841-0.668-149.725-1.7-224.577-0.079-5.66-1.914-9.536-6.185-12.395-17.676-11.829-32.18-26.969-44.575-43.99-6.194-8.507-11.285-18.011-15.626-27.627-5.1-11.302-9.42-23.044-12.973-34.926-2.417-8.082-3.024-16.719-4.267-25.134-0.658-4.457-0.928-8.971-1.405-13.454-1.815-17.098 1.936-33.782 5.206-50.23 2.302-11.582 5.221-23.457 11.668-34.017 3.024-4.953 4.143-11.047 6.29-16.561 1.551-3.984 3.326-7.886 5.083-11.789 4.049-8.994 8.281-17.908 12.189-26.963 3.636-8.423 6.874-17.015 10.428-25.474 4.106-9.769 8.477-19.425 12.521-29.217 3.825-9.26 7.252-18.684 11.086-27.941 3.291-7.947 6.885-15.769 10.386-23.626 2.416-5.424 5.142-10.722 7.308-16.241 6.622-16.875 17.136-30.641 31.696-41.479 10.262-7.639 21.659-13.093 33.671-16.89 7.981-2.523 16.57-3.253 24.944-4.359 6.271-0.829 12.631-1.367 18.951-1.371 166.991-0.085 333.981-0.127 500.972 0.041 7.659 0.007 15.37 1.721 22.956 3.169 8.464 1.617 17.1 3.057 25.125 6.025 7.493 2.77 14.449 7.166 21.347 11.333 12.807 7.737 22.447 18.887 30.391 31.244 4.621 7.186 7.468 15.534 10.918 23.444 2.795 6.407 5.335 12.929 7.917 19.428 2.118 5.334 4.084 10.727 6.201 16.061 2.516 6.342 5.154 12.639 7.679 18.977 2.257 5.669 4.368 11.397 6.659 17.053 2.349 5.797 4.826 11.542 7.268 17.301 1.821 4.294 3.825 8.516 5.484 12.871 3.698 9.703 7.051 19.542 10.882 29.19 3.77 9.492 8.062 18.777 11.927 28.234 2.234 5.466 4.175 11.056 6.071 16.651 2.652 7.82 5.141 15.695 7.691 23.549 0.278 0.858 0.618 1.721 0.723 2.606 2.11 17.625 6.211 35.33 3.455 53.006-1.934 12.405-1.094 25.264-6.395 37.298-4.405 10.003-6.073 21.265-10.852 31.04-9.539 19.509-21.063 37.917-37.483 52.631-8.882 7.959-18.173 15.466-26.918 23.566-1.946 1.802-3.351 5.238-3.358 7.925-0.159 72.217-0.091 144.434-0.098 216.651-0.001 11.868-1.559 23.601-6.51 34.412-4.723 10.311-11.118 19.622-19.276 27.763-8.527 8.51-19.341 13.033-29.654 18.496-0.771 0.409-1.754 0.496-2.653 0.577-12.076 1.1-24.151 3.073-36.231 3.108-89.134 0.266-178.268 0.144-267.404 0.144 0.002 0.018 0.002 0.038 0.002 0.058zM518.654 165.911c-84.044 0-168.09 0.067-252.135-0.059-15.817-0.025-31.107 1.908-44.873 10.143-5.833 3.488-11.388 7.692-16.336 12.35-9.582 9.021-13.977 21.18-18.576 33.132-1.871 4.863-3.824 9.699-5.925 14.465-3.984 9.039-8.224 17.969-12.137 27.038-4.049 9.386-7.782 18.909-11.755 28.329-3.711 8.8-7.639 17.509-11.308 26.326-2.281 5.482-4.057 11.178-6.403 16.628-5.446 12.647-11.234 25.149-16.629 37.817-4.155 9.753-8.441 19.502-11.714 29.563-3.014 9.262-5.563 18.831-6.831 28.462-1.202 9.129-0.73 18.516-0.517 27.78 0.161 7.055 0.388 14.235 1.821 21.102 1.65 7.913 4.288 15.683 7.172 23.258 3.313 8.697 6.371 17.749 11.339 25.493 6.986 10.89 15.074 21.211 23.715 30.858 8.679 9.69 19.414 17.079 30.459 24.174 12.235 7.858 25.536 12.666 39.225 16.221 10.569 2.745 21.747 3.107 32.642 4.625 15.639 2.179 30.713-2.004 45.604-5.2 13.631-2.925 26.56-8.831 38.668-16.265 13.943-8.563 26.948-18.067 37.381-30.862 8.285-10.162 19.523-11.052 29.249-2.433 2.665 2.361 4.553 5.588 7.178 8.005 12.787 11.77 25.902 23.133 42.305 29.761 10.471 4.23 20.694 9.596 31.567 12.175 15.274 3.622 31.003 6.247 46.871 4.41 8.778-1.018 17.671-2.283 26.096-4.818 13.414-4.037 26.464-9.165 38.58-16.524 14.014-8.512 26.922-18.258 37.31-31.02 7.817-9.603 20.382-10.482 29.123-1.735 3.343 3.345 6.67 6.708 10.036 10.03 11.41 11.259 24.262 20.585 38.734 27.413 8.277 3.906 16.838 7.606 25.664 9.859 12.017 3.066 24.327 5.698 36.658 6.643 18.652 1.43 36.82-2.191 54.911-7.264 15.502-4.348 29.318-11.715 41.835-20.998 22.689-16.83 39.93-38.35 51.239-64.641 5.716-13.287 9.558-27.074 11.359-41.078 3.547-27.59-0.286-54.484-11.77-80.16-5.212-11.653-9.502-23.717-14.218-35.591-1.723-4.337-3.518-8.646-5.193-13.002-3.612-9.401-7.012-18.885-10.787-28.219-3.838-9.487-8.205-18.759-12.001-28.26-3.798-9.507-7.136-19.198-10.759-28.775-1.649-4.362-3.508-8.642-5.257-12.965-2.621-6.48-4.996-13.072-7.901-19.422-3.662-8.004-7.039-16.278-11.821-23.598-7.325-11.213-17.122-20.139-30.031-24.74-8.395-2.993-16.877-6.176-25.596-7.7-7.789-1.362-15.956-0.702-23.957-0.705-80.775-0.035-161.546-0.021-242.316-0.021zM517.281 882.252c0-0.005 0-0.012 0-0.017 89.846 0 179.693 0.015 269.539-0.022 9.01-0.003 17.713-0.368 26.666-3.495 14.731-5.145 23.577-15.694 28.865-28.892 3.392-8.464 4.158-18.416 4.209-27.712 0.342-62.927 0.188-125.856 0.175-188.785-0.001-6.643-2.567-8.165-8.188-6.421-9.123 2.831-18.386 6.158-27.783 6.942-16.27 1.358-32.694 0.783-49.045 1.296-13.441 0.421-26.246-3.243-38.914-6.594-9.951-2.631-19.21-7.89-28.765-12.009-15.739-6.783-29.49-16.51-42.006-28.137-3.006-2.793-6.868-4.073-10.257-0.7-10.612 10.559-22.949 18.779-35.872 26.027-7.788 4.368-16.165 7.834-24.57 10.91-7.073 2.589-14.947 3.167-21.782 6.185-9.954 4.396-20.317 4.03-30.526 4.074-19.342 0.083-38.901 1.982-57.764-4.774-7.412-2.655-15.357-3.899-22.633-6.841-7.965-3.22-15.804-7.083-23.036-11.702-10.725-6.85-21.029-14.398-31.186-22.081-4.78-3.616-8.946-3.933-13.507 0.048-5.038 4.397-10.107 8.817-15.557 12.666-14.625 10.324-30.309 18.531-47.492 23.985-12.931 4.106-25.742 8.268-39.466 8.603-4.88 0.119-10.099-0.405-14.538 1.15-5.218 1.828-9.852 1.505-14.834 0.192-2.087-0.55-4.277-1.1-6.404-1.038-16.899 0.491-33.157-2.678-48.989-8.341-3.383-1.211-5.321-0.045-6.039 3.248-0.385 1.759-0.464 3.611-0.464 5.421-0.016 64.747-0.156 129.495 0.135 194.241 0.052 11.551 3.989 22.486 10.782 31.951 10.258 14.294 24.665 20.628 42.07 20.627 92.391-0.005 184.783-0.002 277.175-0.002zM517.221 371.881c82.591 0 165.183-0.006 247.774 0.015 5.09 0.001 10.181 0.182 15.268 0.352 6.512 0.218 12.133 4.391 13.778 10.139 2.093 7.314-0.166 15.823-6.064 18.7-3.561 1.738-8.078 2.08-12.167 2.085-98.601 0.105-197.201 0.079-295.802 0.078-73.131-0.001-146.263 0.005-219.394-0.015-2.72-0.001-5.439-0.275-8.16-0.368-9.618-0.329-11.961-6.732-12.622-13.188-0.965-9.441 4.011-17.597 14.342-17.49 7.454 0.078 14.91-0.289 22.367-0.291 80.226-0.027 160.453-0.015 240.679-0.015z" fill="#fff"></path></g></g></svg>