<?xml version="1.0" standalone="no"?><!DOCTYPE svg PUBLIC "-//W3C//DTD SVG 1.1//EN" "http://www.w3.org/Graphics/SVG/1.1/DTD/svg11.dtd"><svg width="20" height="20" viewBox="0 0 20 20" version="1.1" xmlns="http://www.w3.org/2000/svg" xmlns:xlink="http://www.w3.org/1999/xlink"><defs><style type="text/css"><![CDATA[
@font-face { font-family: ifont; src: url("//at.alicdn.com/t/font_1442373896_4754455.eot?#iefix") format("embedded-opentype"), url("//at.alicdn.com/t/font_1442373896_4754455.woff") format("woff"), url("//at.alicdn.com/t/font_1442373896_4754455.ttf") format("truetype"), url("//at.alicdn.com/t/font_1442373896_4754455.svg#ifont") format("svg"); }

]]></style></defs><g class="transform-group"><g transform="scale(0.01953125, 0.01953125)"><path d="M599.390906 131.238389c-119.805203 0-217.23055 97.425347-217.23055 217.10892 0 82.70816 46.584155 154.834541 114.818387 191.445065-142.185058 43.786673-245.691887 176.362988-245.691887 332.778715 0 11.433187 9.243853 20.67704 20.79867 20.67704 11.433187 0 20.67704-9.243853 20.67704-20.67704 0-169.06521 137.563131-306.628341 305.168785-306.74997 2.189334 0.243259 4.378667 0.12163 6.446371-0.364889 117.494239-2.675852 212.243734-99.006533 212.243734-217.10892C816.621456 228.663737 719.196109 131.238389 599.390906 131.238389L599.390906 131.238389 599.390906 131.238389zM599.390906 524.10215c-96.817199 0-175.75484-78.816011-175.75484-175.75484 0-96.938829 78.816011-175.75484 175.75484-175.75484 96.938829 0 175.75484 78.816011 175.75484 175.75484C775.145747 445.286138 696.329735 524.10215 599.390906 524.10215L599.390906 524.10215 599.390906 524.10215zM643.785728 530.670151c-8.027557-8.149186-45.489488-9.365483-53.638674-1.216296-8.149186 8.027557-8.149186 22.379855 0 30.529041 1.094667 1.094667-13.379261 4.013778 25.055707 4.986816 30.650671 0.729778 88.789642 18.974225 123.697351 34.907709 53.395415 24.325929 89.397791 68.720751 91.343865 70.910084 49.016748 55.949638 75.77527 126.859722 75.77527 201.783585 0 11.433187 9.243853 20.67704 20.67704 20.67704 11.433187 0 20.67704-9.243853 20.67704-20.67704 0-87.208457-31.866968-169.673358-90.249198-233.772182-1.702815-1.946074-46.705785-49.260007-100.830978-73.585937-62.396009-28.096449-111.899275-32.475116-113.966979-34.54282L643.785728 530.670151 643.785728 530.670151 643.785728 530.670151zM380.092652 529.453854C380.092652 529.332225 379.971023 529.332225 380.092652 529.453854c0-0.12163 0-0.12163 0-0.12163 0-11.433187-9.243853-20.67704-20.79867-20.67704-75.288752 0-136.468464-65.43675-136.468464-145.712317 0-80.397197 61.179713-145.712317 136.468464-145.712317 11.433187 0 20.79867-9.243853 20.79867-20.67704 0-11.433187-9.243853-20.79867-20.79867-20.79867-98.155125 0-177.944174 84.046086-177.944174 187.188027 0 68.720751 35.394227 128.805796 87.938235 161.402542C157.388768 563.875045 76.626683 675.65269 76.626683 806.89108c0 11.433187 9.243853 20.67704 20.67704 20.67704 11.433187 0 20.67704-9.243853 20.67704-20.67704 0-141.576909 108.250386-256.760185 241.19159-256.760185C370.72717 550.130894 380.092652 540.887041 380.092652 529.453854L380.092652 529.453854 380.092652 529.453854zM380.092652 529.453854" fill="#fff"></path></g></g></svg>