<?xml version="1.0" standalone="no"?><!DOCTYPE svg PUBLIC "-//W3C//DTD SVG 1.1//EN" "http://www.w3.org/Graphics/SVG/1.1/DTD/svg11.dtd"><svg width="20" height="20" viewBox="0 0 20 20" version="1.1" xmlns="http://www.w3.org/2000/svg" xmlns:xlink="http://www.w3.org/1999/xlink"><defs><style type="text/css"><![CDATA[
@font-face { font-family: ifont; src: url("//at.alicdn.com/t/font_1442373896_4754455.eot?#iefix") format("embedded-opentype"), url("//at.alicdn.com/t/font_1442373896_4754455.woff") format("woff"), url("//at.alicdn.com/t/font_1442373896_4754455.ttf") format("truetype"), url("//at.alicdn.com/t/font_1442373896_4754455.svg#ifont") format("svg"); }

]]></style></defs><g class="transform-group"><g transform="scale(0.01953125, 0.01953125)"><path d="M928 768 928 452.16 544 452.16 544 256 640 256 640 0 384 0 384 256 480 256 480 452.16 96 452.16 96 768 0 768 0 1024 256 1024 256 768 160 768 160 516.16 480 516.16 480 768 384 768 384 1024 640 1024 640 768 544 768 544 516.16 864 516.16 864 768 768 768 768 1024 1024 1024 1024 768Z" fill="#70b2ff"></path></g></g></svg>