<?xml version="1.0" standalone="no"?><!DOCTYPE svg PUBLIC "-//W3C//DTD SVG 1.1//EN" "http://www.w3.org/Graphics/SVG/1.1/DTD/svg11.dtd"><svg width="20" height="20" viewBox="0 0 20 20" version="1.1" xmlns="http://www.w3.org/2000/svg" xmlns:xlink="http://www.w3.org/1999/xlink"><defs><style type="text/css"><![CDATA[
@font-face { font-family: ifont; src: url("//at.alicdn.com/t/font_1442373896_4754455.eot?#iefix") format("embedded-opentype"), url("//at.alicdn.com/t/font_1442373896_4754455.woff") format("woff"), url("//at.alicdn.com/t/font_1442373896_4754455.ttf") format("truetype"), url("//at.alicdn.com/t/font_1442373896_4754455.svg#ifont") format("svg"); }

]]></style></defs><g class="transform-group"><g transform="scale(0.01953125, 0.01953125)"><path d="M358.393 289.223c-11.642-3.771-24.389 0.386-31.565 10.299L43.141 691.371c-6.219 8.59-7.099 19.941-2.275 29.389 4.823 9.445 14.534 15.393 25.14 15.393l283.686 0c15.59 0 28.228-12.641 28.228-28.229L377.92 316.076C377.919 303.838 370.034 292.995 358.393 289.223zM321.464 679.697 121.29 679.697l200.175-276.496L321.465 679.697zM510.589 221.963c-15.591 0-28.227 12.638-28.227 28.227l0 4.234c0 0.478 0.012 0.952 0.035 1.423-0.023 0.472-0.035 0.946-0.035 1.423l0 8.539c0 0.478 0.01 0.951 0.034 1.423-0.023 0.473-0.034 0.946-0.034 1.423l0 8.539c0 0.478 0.01 0.951 0.034 1.423-0.023 0.472-0.034 0.945-0.034 1.423l0 8.538c0 0.478 0.01 0.951 0.034 1.423-0.023 0.473-0.034 0.946-0.034 1.424l0 8.538c0 0.478 0.01 0.951 0.034 1.423-0.023 0.472-0.034 0.945-0.034 1.423l0 8.539c0 0.478 0.01 0.951 0.034 1.423-0.023 0.473-0.034 0.946-0.034 1.423l0 8.539c0 0.478 0.01 0.951 0.034 1.423-0.023 0.472-0.034 0.946-0.034 1.423l0 8.538c0 0.477 0.01 0.952 0.034 1.422-0.023 0.472-0.034 0.947-0.034 1.424l0 8.539c0 0.477 0.01 0.951 0.034 1.423-0.023 0.472-0.034 0.945-0.034 1.423l0 8.539c0 0.478 0.01 0.951 0.034 1.423-0.023 0.472-0.034 0.945-0.034 1.423l0 8.539c0 0.478 0.01 0.951 0.034 1.423-0.023 0.472-0.034 0.945-0.034 1.423l0 8.538c0 0.478 0.01 0.952 0.034 1.424-0.023 0.472-0.034 0.945-0.034 1.423l0 8.538c0 0.478 0.01 0.951 0.034 1.423-0.023 0.472-0.034 0.945-0.034 1.423l0 8.539c0 0.478 0.01 0.951 0.034 1.423-0.023 0.472-0.034 0.945-0.034 1.423l0 8.539c0 0.478 0.01 0.951 0.034 1.423-0.023 0.472-0.034 0.945-0.034 1.423l0 8.539c0 0.478 0.01 0.951 0.034 1.423-0.023 0.472-0.034 0.945-0.034 1.423l0 8.539c0 0.478 0.01 0.951 0.034 1.423-0.023 0.472-0.034 0.945-0.034 1.423l0 8.538c0 0.478 0.01 0.952 0.034 1.423-0.023 0.472-0.034 0.946-0.034 1.423l0 8.538c0 0.478 0.01 0.951 0.034 1.423-0.023 0.472-0.034 0.945-0.034 1.423l0 8.539c0 0.477 0.01 0.951 0.034 1.423-0.023 0.472-0.034 0.945-0.034 1.423l0 8.539c0 0.478 0.01 0.951 0.034 1.423-0.023 0.472-0.034 0.946-0.034 1.424l0 8.537c0 0.478 0.01 0.952 0.034 1.424-0.023 0.472-0.034 0.945-0.034 1.423l0 8.539c0 0.478 0.01 0.951 0.034 1.423-0.023 0.472-0.034 0.946-0.034 1.423l0 8.539c0 0.477 0.01 0.951 0.034 1.423-0.023 0.472-0.034 0.945-0.034 1.423l0 8.539c0 0.477 0.01 0.951 0.034 1.422-0.023 0.473-0.034 0.947-0.034 1.424l0 8.537c0 0.479 0.01 0.952 0.034 1.424-0.023 0.473-0.034 0.945-0.034 1.424l0 8.537c0 0.479 0.01 0.953 0.034 1.424-0.023 0.473-0.034 0.945-0.034 1.424l0 8.539c0 0.477 0.01 0.949 0.034 1.422-0.023 0.473-0.034 0.945-0.034 1.424l0 8.537c0 0.479 0.01 0.951 0.034 1.424-0.023 0.471-0.034 0.945-0.034 1.424l0 8.537c0 0.479 0.01 0.951 0.034 1.424-0.023 0.471-0.034 0.945-0.034 1.422l0 8.539c0 0.477 0.01 0.951 0.034 1.422-0.023 0.475-0.034 0.947-0.034 1.424l0 8.539c0 0.477 0.01 0.951 0.034 1.422-0.023 0.473-0.034 0.947-0.034 1.424l0 8.539c0 0.477 0.01 0.951 0.034 1.422-0.023 0.473-0.034 0.945-0.034 1.424l0 8.539c0 0.477 0.01 0.951 0.034 1.422-0.023 0.473-0.034 0.945-0.034 1.422l0 8.539c0 0.479 0.01 0.951 0.034 1.424-0.023 0.473-0.034 0.945-0.034 1.422l0 8.539c0 0.479 0.01 0.951 0.034 1.426-0.023 0.469-0.034 0.945-0.034 1.422l0 8.539c0 0.477 0.01 0.949 0.034 1.422-0.023 0.473-0.034 0.945-0.034 1.424l0 8.537c0 0.479 0.01 0.951 0.034 1.424-0.023 0.473-0.034 0.945-0.034 1.424l0 8.537c0 0.479 0.01 0.951 0.034 1.424-0.023 0.473-0.034 0.945-0.034 1.422l0 8.539c0 0.477 0.01 0.951 0.034 1.422-0.023 0.473-0.034 0.947-0.034 1.424l0 8.539c0 0.477 0.01 0.951 0.034 1.422-0.023 0.473-0.034 0.945-0.034 1.426l0 8.537c0 0.477 0.01 0.951 0.034 1.422-0.023 0.473-0.034 0.945-0.034 1.422l0 8.539c0 0.479 0.01 0.953 0.034 1.426-0.023 0.471-0.034 0.945-0.034 1.422l0 8.537c0 0.479 0.01 0.951 0.034 1.426-0.023 0.469-0.034 0.945-0.034 1.422l0 8.539c0 0.477 0.01 0.949 0.034 1.422-0.023 0.473-0.034 0.945-0.034 1.424l0 8.537c0 0.479 0.012 0.953 0.035 1.424-0.023 0.473-0.035 0.945-0.035 1.424l0 4.232c0 15.592 12.636 28.229 28.227 28.229 15.59 0 28.227-12.637 28.227-28.229l0-4.232c0-0.479-0.012-0.951-0.035-1.424 0.023-0.471 0.035-0.945 0.035-1.424l0-8.537c0-0.479-0.012-0.951-0.035-1.424 0.023-0.473 0.035-0.945 0.035-1.422l0-8.539c0-0.477-0.012-0.953-0.035-1.422 0.023-0.475 0.035-0.947 0.035-1.426l0-8.537c0-0.477-0.012-0.951-0.035-1.422 0.023-0.473 0.035-0.947 0.035-1.426l0-8.539c0-0.477-0.012-0.949-0.035-1.422 0.023-0.471 0.035-0.945 0.035-1.422l0-8.537c0-0.48-0.012-0.953-0.035-1.426 0.023-0.471 0.035-0.945 0.035-1.422l0-8.539c0-0.477-0.012-0.951-0.035-1.424 0.023-0.471 0.035-0.945 0.035-1.422l0-8.539c0-0.477-0.012-0.949-0.035-1.422 0.023-0.473 0.035-0.945 0.035-1.424L538.816 678.5c0-0.479-0.012-0.951-0.035-1.424 0.023-0.473 0.035-0.945 0.035-1.424l0-8.537c0-0.479-0.012-0.951-0.035-1.424 0.023-0.473 0.035-0.945 0.035-1.422l0-8.539c0-0.477-0.012-0.953-0.035-1.422 0.023-0.475 0.035-0.947 0.035-1.426l0-8.539c0-0.477-0.012-0.949-0.035-1.422 0.023-0.473 0.035-0.945 0.035-1.424l0-8.539c0-0.477-0.012-0.949-0.035-1.422 0.023-0.471 0.035-0.945 0.035-1.422l0-8.539c0-0.479-0.012-0.951-0.035-1.424 0.023-0.471 0.035-0.945 0.035-1.422l0-8.539c0-0.477-0.012-0.951-0.035-1.424 0.023-0.471 0.035-0.945 0.035-1.422l0-8.539c0-0.477-0.012-0.949-0.035-1.424 0.023-0.471 0.035-0.945 0.035-1.422l0-8.539c0-0.477-0.012-0.951-0.035-1.422 0.023-0.473 0.035-0.945 0.035-1.424l0-8.537c0-0.479-0.012-0.953-0.035-1.424 0.023-0.473 0.035-0.945 0.035-1.424l0-8.537c0-0.479-0.012-0.951-0.035-1.424 0.023-0.473 0.035-0.945 0.035-1.422l0-8.539c0-0.479-0.012-0.951-0.035-1.424 0.023-0.471 0.035-0.945 0.035-1.424l0-8.537c0-0.479-0.012-0.951-0.035-1.424 0.023-0.472 0.035-0.945 0.035-1.424L538.816 530.5c0-0.477-0.012-0.951-0.035-1.424 0.023-0.471 0.035-0.945 0.035-1.422l0-8.539c0-0.478-0.012-0.951-0.035-1.423 0.023-0.472 0.035-0.946 0.035-1.423l0-8.539c0-0.477-0.012-0.951-0.035-1.423 0.023-0.472 0.035-0.945 0.035-1.423l0-8.539c0-0.478-0.012-0.951-0.035-1.423 0.023-0.472 0.035-0.946 0.035-1.424l0-8.537c0-0.478-0.012-0.952-0.035-1.424 0.023-0.472 0.035-0.945 0.035-1.423l0-8.539c0-0.478-0.012-0.951-0.035-1.423 0.023-0.472 0.035-0.946 0.035-1.423l0-8.539c0-0.478-0.012-0.951-0.035-1.423 0.023-0.472 0.035-0.945 0.035-1.423l0-8.538c0-0.478-0.012-0.951-0.035-1.423 0.023-0.472 0.035-0.946 0.035-1.423l0-8.538c0-0.478-0.012-0.951-0.035-1.423 0.023-0.472 0.035-0.945 0.035-1.423l0-8.539c0-0.478-0.012-0.951-0.035-1.423 0.023-0.472 0.035-0.946 0.035-1.423l0-8.539c0-0.478-0.012-0.951-0.035-1.423 0.023-0.472 0.035-0.946 0.035-1.423l0-8.539c0-0.478-0.012-0.951-0.035-1.423 0.023-0.472 0.035-0.946 0.035-1.423l0-8.539c0-0.478-0.012-0.951-0.035-1.423 0.023-0.472 0.035-0.945 0.035-1.423l0-8.538c0-0.478-0.012-0.951-0.035-1.423 0.023-0.472 0.035-0.946 0.035-1.424l0-8.538c0-0.478-0.012-0.951-0.035-1.423 0.023-0.472 0.035-0.946 0.035-1.423l0-8.539c0-0.478-0.012-0.951-0.035-1.423 0.023-0.472 0.035-0.946 0.035-1.423l0-8.539c0-0.478-0.012-0.951-0.035-1.423 0.023-0.472 0.035-0.946 0.035-1.423l0-8.539c0-0.477-0.012-0.952-0.035-1.424 0.023-0.47 0.035-0.945 0.035-1.422l0-8.538c0-0.478-0.012-0.951-0.035-1.423 0.023-0.472 0.035-0.945 0.035-1.423l0-8.539c0-0.478-0.012-0.951-0.035-1.423 0.023-0.472 0.035-0.945 0.035-1.423l0-8.539c0-0.478-0.012-0.951-0.035-1.423 0.023-0.472 0.035-0.946 0.035-1.423l0-8.538c0-0.478-0.012-0.951-0.035-1.424 0.023-0.472 0.035-0.945 0.035-1.423l0-8.538c0-0.478-0.012-0.951-0.035-1.423 0.023-0.472 0.035-0.945 0.035-1.423l0-8.539c0-0.478-0.012-0.951-0.035-1.423 0.023-0.472 0.035-0.945 0.035-1.423l0-8.539c0-0.478-0.012-0.952-0.035-1.423 0.023-0.471 0.035-0.945 0.035-1.423l0-4.234C538.815 234.601 526.179 221.963 510.589 221.963zM980.858 691.371 697.173 299.522c-7.177-9.913-19.924-14.07-31.565-10.299-11.642 3.771-19.527 14.615-19.527 26.853l0 391.848c0 15.588 12.638 28.229 28.228 28.229l283.687 0c10.605 0 20.316-5.947 25.14-15.393C987.958 711.312 987.078 699.961 980.858 691.371zM702.535 679.697 702.535 403.202 902.71 679.697 702.535 679.697z" fill="#70b2ff"></path></g></g></svg>