<?xml version="1.0" standalone="no"?><!DOCTYPE svg PUBLIC "-//W3C//DTD SVG 1.1//EN" "http://www.w3.org/Graphics/SVG/1.1/DTD/svg11.dtd"><svg width="20" height="20" viewBox="0 0 20 20" version="1.1" xmlns="http://www.w3.org/2000/svg" xmlns:xlink="http://www.w3.org/1999/xlink"><defs><style type="text/css"><![CDATA[
@font-face { font-family: ifont; src: url("//at.alicdn.com/t/font_1442373896_4754455.eot?#iefix") format("embedded-opentype"), url("//at.alicdn.com/t/font_1442373896_4754455.woff") format("woff"), url("//at.alicdn.com/t/font_1442373896_4754455.ttf") format("truetype"), url("//at.alicdn.com/t/font_1442373896_4754455.svg#ifont") format("svg"); }

]]></style></defs><g class="transform-group"><g transform="scale(0.01953125, 0.01953125)"><path d="M100.032 520.96c-6.336 0-12.672-1.856-18.24-5.76C67.264 505.152 63.68 485.184 73.792 470.656l182.656-262.336c10.048-14.528 30.016-18.176 44.544-8 14.528 10.112 18.112 30.016 8 44.544L126.272 507.264C120.064 516.16 110.144 520.96 100.032 520.96zM282.688 764.032c-9.728 0-19.328-4.416-25.6-12.736L74.432 508.16c-10.624-14.144-7.744-34.176 6.4-44.8 14.144-10.56 34.176-7.744 44.8 6.4l182.656 243.008c10.624 14.144 7.744 34.176-6.4 44.8C296.128 761.92 289.344 764.032 282.688 764.032zM924.608 520.96c-10.048 0-20.032-4.8-26.24-13.696l-182.656-262.336c-10.112-14.528-6.592-34.432 7.936-44.544 14.656-10.112 34.432-6.592 44.544 8l182.656 262.336c10.112 14.528 6.592 34.432-7.936 44.544C937.344 519.104 930.944 520.96 924.608 520.96zM742.016 764.032c-6.656 0-13.44-2.048-19.264-6.464-14.144-10.624-16.96-30.656-6.336-44.8l182.656-243.008c10.56-14.144 30.656-16.96 44.8-6.4 14.144 10.624 16.96 30.656 6.336 44.8l-182.656 243.072C761.344 759.552 751.68 764.032 742.016 764.032zM418.432 764.032c-3.648 0-7.36-0.64-10.944-1.92-16.576-6.08-25.152-24.448-19.072-41.024L572.608 215.68c6.08-16.576 24.384-25.152 41.024-19.072 16.64 6.08 25.216 24.384 19.136 41.024l-184.256 505.344C443.776 755.968 431.488 764.032 418.432 764.032z" fill="#70b2ff"></path></g></g></svg>