<?xml version="1.0" standalone="no"?><!DOCTYPE svg PUBLIC "-//W3C//DTD SVG 1.1//EN" "http://www.w3.org/Graphics/SVG/1.1/DTD/svg11.dtd"><svg width="20" height="20" viewBox="0 0 20 20" version="1.1" xmlns="http://www.w3.org/2000/svg" xmlns:xlink="http://www.w3.org/1999/xlink"><defs><style type="text/css"><![CDATA[
@font-face { font-family: ifont; src: url("//at.alicdn.com/t/font_1442373896_4754455.eot?#iefix") format("embedded-opentype"), url("//at.alicdn.com/t/font_1442373896_4754455.woff") format("woff"), url("//at.alicdn.com/t/font_1442373896_4754455.ttf") format("truetype"), url("//at.alicdn.com/t/font_1442373896_4754455.svg#ifont") format("svg"); }

]]></style></defs><g class="transform-group"><g transform="scale(0.01953125, 0.01953125)"><path d="M892.51968 70.4 132.76544 70.4c-41.37984 0-74.91072 33.53472-74.91072 74.9056l0 306.24 0 12.06912L57.85472 660.48l0 64 0 122.97984c0 41.37984 33.53984 74.91072 74.91072 74.91072l54.6752 0 0.49024-0.57984c1.984 0.37504 4.02688 0.57984 6.11968 0.57984l395.93856 0 153.3888 0 149.14176 0c41.37472 0 74.9056-33.54112 74.9056-74.91072L967.42528 145.3056C967.42528 103.9296 933.88544 70.4 892.51968 70.4zM123.38944 463.61472l0-12.06912L123.38944 173.3952c0-20.68992 16.76032-37.46048 37.46048-37.46048l703.57504 0c20.68992 0 37.4656 16.76032 37.4656 37.46048L901.89056 660.48 123.38944 660.48 123.38944 463.61472zM864.42496 856.82944l-121.04704 0-97.4464 0L242.85184 856.82944l-48.80128 0-33.20064 0c-20.6848 0-37.46048-16.75392-37.46048-37.4592L123.38944 724.48l778.50112 0 0 94.89024C901.89056 840.06016 885.13024 856.82944 864.42496 856.82944zM808.96 787.2m-38.4 0a30 30 0 1 0 76.8 0 30 30 0 1 0-76.8 0ZM646.8992 510.13632l-108.78976-108.78976L538.10944 247.80672c0-18.09664-14.67008-32.76672-32.76672-32.76672s-32.76672 14.67008-32.76672 32.76672l0 167.42528c0 10.39616 4.84736 19.65568 12.39936 25.6576l115.58528 115.58528c12.79616 12.79616 33.54368 12.79616 46.33984 0C659.69664 543.68 659.69664 522.93248 646.8992 510.13632z" fill="#70b2ff"></path></g></g></svg>